<svg version="1.1" xmlns="http://www.w3.org/2000/svg" xmlns:xlink="http://www.w3.org/1999/xlink" width="231.02645" height="135.52585" viewBox="0,0,231.02645,135.52585"><defs><linearGradient x1="170.3751" y1="225.81437" x2="279.12505" y2="225.81437" gradientUnits="userSpaceOnUse" id="color-1"><stop offset="0" stop-color="#ffffff"/><stop offset="1" stop-color="#ffffff" stop-opacity="0"/></linearGradient><linearGradient x1="247.57433" y1="227.79544" x2="288.06854" y2="227.79544" gradientUnits="userSpaceOnUse" id="color-2"><stop offset="0" stop-color="#000000"/><stop offset="1" stop-color="#404040"/></linearGradient></defs><g transform="translate(-117.83559,-144.42878)"><g data-paper-data="{&quot;isPaintingLayer&quot;:true}" fill-rule="nonzero" stroke-linejoin="miter" stroke-miterlimit="10" stroke-dasharray="" stroke-dashoffset="0" style="mix-blend-mode: normal"><path d="M183.97592,257.18241l-22.856,4.89995" fill="none" stroke="#7a7a7a" stroke-width="7.5" stroke-linecap="round"/><path d="M141.83749,266.2162l-20.2519,-13.10148" fill="none" stroke="#7a7a7a" stroke-width="7.5" stroke-linecap="round"/><path d="M144.36874,265.67353l-3.59117,-16.75114l16.75114,-3.59117l3.59117,16.75114z" fill="none" stroke="#7a7a7a" stroke-width="7.5" stroke-linecap="butt"/><g fill="none" stroke="#7a7a7a" stroke-width="7.5" stroke-linecap="round"><path d="M345.11205,224.49726l-50.18852,-15.92807"/><path d="M334.59344,233.21271l-1.80304,-15.02657l8.71527,-8.71527"/></g><path d="M239.78157,148.17878c32.6148,0 62.96112,45.67388 62.96112,72.72829c0,27.05456 -30.64688,55.29756 -63.26153,55.29756c-32.6148,0 -73.47974,-18.3255 -73.7803,-49.88798c-0.25759,-27.05318 41.46606,-78.13787 74.08071,-78.13787z" fill="#81a7d9" stroke="#7193bd" stroke-width="7.5" stroke-linecap="butt"/><path d="M279.12505,225.81437c0,22.33199 -24.34451,40.43564 -54.375,40.43564c-30.03048,0 -54.375,-18.10366 -54.375,-40.43564c0,-22.33199 17.84452,-47.18564 47.875,-47.18564c30.03049,0 60.875,24.85366 60.875,47.18564z" fill="url(#color-1)" stroke="none" stroke-width="0" stroke-linecap="butt"/><g fill="none" stroke="#7a7a7a" stroke-width="7.5" stroke-linecap="round"><path d="M134.46186,222.69743l45.38004,-13.52391"/><path d="M134.76236,209.77466l11.72072,7.5132l-4.80848,17.13031"/></g><path d="M241.1251,223.25005h-72.25" fill="none" stroke="#7193bd" stroke-width="5" stroke-linecap="round"/><path d="M236.1251,248.75005h-61.5" fill="none" stroke="#7193bd" stroke-width="5" stroke-linecap="round"/><path d="M231.8751,247.00005c0,0 -3.71029,-7.83228 -4.84206,-12.04245c-0.89598,-3.33305 -1.40794,-11.20755 -1.40794,-11.20755" fill="none" stroke="#7193bd" stroke-width="5" stroke-linecap="round"/><path d="M172.3751,230.50005c0,-1.38071 1.11929,-2.5 2.5,-2.5c1.38071,0 2.5,1.11929 2.5,2.5c0,1.38071 -1.11929,2.5 -2.5,2.5c-1.38071,0 -2.5,-1.11929 -2.5,-2.5z" fill="#7193bd" stroke="none" stroke-width="0.5" stroke-linecap="butt"/><path d="M177.8751,241.75005c0,-1.38071 1.11929,-2.5 2.5,-2.5c1.38071,0 2.5,1.11929 2.5,2.5c0,1.38071 -1.11929,2.5 -2.5,2.5c-1.38071,0 -2.5,-1.11929 -2.5,-2.5z" fill="#7193bd" stroke="none" stroke-width="0.5" stroke-linecap="butt"/><path d="M216.8751,229.75005c0,-1.38071 1.11929,-2.5 2.5,-2.5c1.38071,0 2.5,1.11929 2.5,2.5c0,1.38071 -1.11929,2.5 -2.5,2.5c-1.38071,0 -2.5,-1.11929 -2.5,-2.5z" fill="#7193bd" stroke="none" stroke-width="0.5" stroke-linecap="butt"/><path d="M219.6251,242.25005c0,-1.38071 1.11929,-2.5 2.5,-2.5c1.38071,0 2.5,1.11929 2.5,2.5c0,1.38071 -1.11929,2.5 -2.5,2.5c-1.38071,0 -2.5,-1.11929 -2.5,-2.5z" fill="#7193bd" stroke="none" stroke-width="0.5" stroke-linecap="butt"/><path d="M256.81924,255.63822c-0.6567,-0.26318 -1.07562,-0.74195 -1.07562,-0.74195c-1.75944,-2.01984 -4.00608,-3.50182 -5.7481,-5.49783c-1.85938,-2.13049 -3.53739,-5.23109 -4.83387,-7.73618c-2.33891,-4.51931 -2.5366,-9.18903 -2.5366,-14.16225c0,-7.22591 -0.28126,-14.16883 4.67439,-19.95796c3.29825,-3.2799 7.763,-7.59061 12.26428,-9.15672c3.09501,-1.07683 6.13879,-0.65662 9.25856,-0.09499c5.54093,0.9975 12.20526,2.35785 16.18692,6.81649c4.20056,4.70377 6.72178,11.60756 7.33834,17.77322c1.72724,8.79316 -0.01076,16.31331 -3.9864,24.238c-1.19672,2.38544 -2.76685,5.48694 -4.84288,7.2661c-4.62198,3.96104 -10.95391,3.08097 -16.51865,3.36276c-3.37568,0.17095 -5.31841,0.31497 -8.55301,-0.9257zM259.17823,251.24128c0.31459,0.15139 0.50857,0.30658 0.50857,0.30658l0.61674,0.63098c2.56381,1.08646 3.69953,0.71 6.44699,0.5743c4.12352,-0.20367 10.05948,0.88317 13.48135,-2.13724c1.56916,-1.38506 2.75146,-3.91573 3.65712,-5.7339c3.51245,-7.05148 5.10898,-13.43921 3.5136,-21.262c-0.54136,-5.41354 -2.66027,-10.99179 -6.16166,-15.22678c-2.2605,-2.73412 -7.26067,-4.0855 -10.56308,-4.68351c-3.0318,-0.549 -6.43254,-1.6754 -9.49144,-0.59499c-3.70344,1.30806 -7.5439,5.13329 -10.23572,7.84328c-3.50546,3.87978 -3.32561,9.0873 -3.32561,14.04204c0,7.8532 0.64729,14.85728 6.12954,21.10157c1.63251,1.85943 3.71367,3.30572 5.42363,5.13968z" fill="#000000" stroke="none" stroke-width="0.5" stroke-linecap="butt"/><path d="M253.72418,246.14127c-5.48225,-6.24429 -6.14861,-13.29487 -6.14861,-21.14807c0,-4.95473 -0.16571,-10.19072 3.33975,-14.0705c2.69182,-2.70999 6.5547,-6.54818 10.25814,-7.85624c3.0589,-1.08041 6.47851,0.04462 9.51031,0.59362c3.30242,0.59801 8.32515,1.95793 10.58565,4.69205c3.50139,4.23499 5.64075,9.84393 6.18211,15.25748c1.59539,7.82279 -0.01579,14.25738 -3.52824,21.30885c-0.90566,1.81817 -2.09832,4.35634 -3.66748,5.7414c-3.42187,3.02041 -9.38386,1.93959 -13.50738,2.14326c-2.74746,0.1357 -3.89576,0.50999 -6.45957,-0.57647l-0.61821,-0.63146c0,0 -0.19507,-0.15557 -0.50966,-0.30696c-1.70996,-1.83397 -3.80429,-3.28753 -5.4368,-5.14696z" data-paper-data="{&quot;noHover&quot;:false,&quot;origItem&quot;:[&quot;Path&quot;,{&quot;applyMatrix&quot;:true,&quot;segments&quot;:[[[518.35634,502.48251],[-3.41992,-3.66793],[0.62917,0.30277]],[519.37348,503.09566],[[520.60695,504.35762],[0,0],[5.12763,2.17291]],[[533.50093,505.50621],[-5.49492,0.2714],[8.24704,-0.40733]],[[560.46363,501.23174],[-6.84374,6.04081],[3.13833,-2.77013]],[[567.77786,489.76393],[-1.81132,3.63635],[7.02489,-14.10295]],[[574.80505,447.23993],[3.19077,15.64558],[-1.08271,-10.82709]],[[562.48174,416.78637],[7.00277,8.46999],[-4.521,-5.46824]],[[541.35557,407.41935],[6.60484,1.19601],[-6.0636,-1.098]],[[522.37268,406.22937],[6.11781,-2.16082],[-7.40688,2.61612]],[[501.90123,421.91592],[5.38364,-5.41998],[-7.01092,7.75956]],[[495.25,450],[0,-9.90947],[0,15.70639]],[[507.50908,492.20314],[-10.96449,-12.48859],[3.26501,3.71886]]],&quot;closed&quot;:true}]}" fill="url(#color-2)" stroke="none" stroke-width="0.5" stroke-linecap="butt"/><path d="M248.20003,228.0529c-0.31036,-2.94208 -1.54307,-5.84517 1.17822,-7.59026c2.21502,-1.42043 3.10898,3.92382 4.16789,4.83432c0.5876,0.50524 0.58912,-1.66145 1.23183,-2.0736c0.48193,-0.30905 1.76758,-0.16421 2.24159,0.13975c0.47222,0.30282 1.75938,3.44055 2.09364,3.29186c0.7394,-0.32892 1.03646,-1.39803 2.13483,-1.12411c0.70352,0.17545 1.95921,1.621 2.03586,0.81681c0.27477,-2.88296 3.44583,-3.55346 5.57017,-2.36145c2.71349,1.52258 0.30488,3.58458 -0.66831,4.79625c-0.6101,0.75961 -0.43861,1.91583 -1.36845,2.86447c-0.53685,0.5477 -2.12711,-0.09204 -2.44674,0.22426c-0.57068,0.56474 -1.10819,1.4473 -1.97962,1.96095c-0.63171,0.37235 -2.37753,-0.91569 -2.81686,-0.64939c-0.16315,0.09889 1.79171,2.96552 1.49688,3.55928c-0.60955,1.22754 -0.90811,2.16521 -2.24159,2.36025c-0.51155,0.07482 -1.7645,-0.66852 -1.54216,-0.1461c0.12882,0.30268 0.52147,0.61188 0.9496,0.94773c0.28021,0.14561 0.5289,0.35465 0.73145,0.61069c0.50224,0.47666 0.84787,1.01572 0.56124,1.65911c0,1.0652 -0.59363,1.9748 -1.42988,2.33489c-0.22516,0.16002 -0.47101,0.23113 -0.73917,0.16426c-0.0195,0.00057 -0.03905,0.00085 -0.05867,0.00085c-0.52528,0 -1.0081,-0.20403 -1.38897,-0.54531c-4.96961,-2.56441 -7.14451,-10.68824 -7.71281,-16.07549z" fill="#a4a4a4" stroke="none" stroke-width="0.5" stroke-linecap="butt"/><path d="M287.57714,223.19832c0.51584,2.43363 1.94843,4.76643 -0.64196,6.42498c-2.10847,1.35 -3.37466,-3.04622 -4.49417,-3.72809c-0.62122,-0.37837 -0.47071,1.4309 -1.08251,1.82261c-0.45875,0.29372 -1.75057,0.26795 -2.24443,0.04922c-0.492,-0.2179 -1.99534,-2.74259 -2.31813,-2.59369c-0.71403,0.32937 -0.93515,1.24405 -2.04932,1.09664c-0.71365,-0.09443 -2.06687,-1.2085 -2.08686,-0.53134c-0.07163,2.42757 -3.18578,3.22214 -5.38718,2.38408c-2.8119,-1.07049 -0.55545,-2.97051 0.32969,-4.05427c0.5549,-0.67942 0.30281,-1.63216 1.1632,-2.49309c0.49675,-0.49706 2.12696,-0.08059 2.4234,-0.36836c0.52928,-0.5138 1.00319,-1.2905 1.83588,-1.7839c0.60362,-0.35767 2.4344,0.58861 2.85368,0.33373c0.1557,-0.09465 -1.99424,-2.34355 -1.74198,-2.86115c0.52152,-1.0701 0.75336,-1.87514 2.06902,-2.13669c0.50472,-0.10034 1.80593,0.4276 1.54763,0.00785c-0.14966,-0.2432 -0.56279,-0.47231 -1.01316,-0.72106c-0.28955,-0.10084 -0.55214,-0.25698 -0.77203,-0.45578c-0.53413,-0.36083 -0.91651,-0.78536 -0.67591,-1.34379c-0.07474,-0.88943 0.45322,-1.69287 1.2616,-2.05544c0.21323,-0.15028 0.45333,-0.22786 0.72534,-0.19187c0.01939,-0.00191 0.03887,-0.0036 0.05842,-0.00505c0.52365,-0.03888 1.01928,0.09574 1.42292,0.35252c5.13412,1.77341 7.8723,8.39573 8.81686,12.85195z" fill="#a4a4a4" stroke="none" stroke-width="0.5" stroke-linecap="butt"/></g></g></svg>