<svg version="1.1" xmlns="http://www.w3.org/2000/svg" xmlns:xlink="http://www.w3.org/1999/xlink" width="13.96018" height="12.79507" viewBox="0,0,13.96018,12.79507"><g><g data-paper-data="{&quot;isPaintingLayer&quot;:true}" fill-rule="nonzero" stroke-linecap="butt" stroke-linejoin="miter" stroke-miterlimit="10" stroke-dasharray="" stroke-dashoffset="0" style="mix-blend-mode: normal"><path d="M246.98009,189.9406c0,2.68816 -0.93874,0.83333 -4.66666,0.83333c-3.72792,0 -8.41666,2.10483 -9.25,-6.25c-0.41567,-4.16748 2.19044,-6.02915 5.91666,-5.91667c5.52111,0.16666 4.21031,5.20129 6.01095,8.78515c0.86195,1.71554 1.98905,1.27571 1.98905,2.54819zM239.01088,188.19662c1.38071,0 2.41667,-1.11929 2.41667,-2.5c0,-1.38071 -1.45262,-4 -2.83333,-4c-1.38071,0 -2.58334,1.95263 -2.58334,3.33334c0,1.38071 1.61929,3.16666 3,3.16666z" stroke-width="0" fill="#fc99cf" stroke="none" transform="matrix(1,0,0,1,-233.0199,-178.60247)"/></g></g></svg>