<svg version="1.1" xmlns="http://www.w3.org/2000/svg" xmlns:xlink="http://www.w3.org/1999/xlink" width="512.01999" height="422.44135" viewBox="0,0,512.01999,422.44135"><g transform="translate(16.00998,45.61832)"><g data-paper-data="{&quot;isPaintingLayer&quot;:true}" fill-rule="nonzero" stroke-linejoin="miter" stroke-miterlimit="10" stroke-dasharray="" stroke-dashoffset="0" style="mix-blend-mode: normal"><path d="M-16.00998,376.82303v-393.64606h512.01999v393.64606z" fill="#9ce7f7" stroke="none" stroke-width="2" stroke-linecap="butt"/><path d="M487.61049,289.71667v48.10144h-501.55428v-48.10144z" fill="#f1feff" stroke="#7ebecd" stroke-width="2.5" stroke-linecap="butt"/><path d="M427.91612,56.0111l26.66667,281.35672l-51.33333,-47.731l-26.66667,-275.25729z" fill="#e1f9fe" stroke="#7ebecd" stroke-width="2.5" stroke-linecap="round"/><path d="M-10.9438,366.95v-29.33189h497.55428v29.33189z" fill="#dbfaff" stroke="#7ebecd" stroke-width="2.5" stroke-linecap="butt"/><path d="M96.58277,13.71286l-26.66666,275.25729l-51.33334,47.73101l26.66667,-281.35672z" data-paper-data="{&quot;index&quot;:null}" fill="#e1f9fe" stroke="#7ebecd" stroke-width="2.5" stroke-linecap="round"/><path d="M-6.9438,55.61666v-29.33189h497.55428v29.33189z" fill="#d0eef2" stroke="#7ebecd" stroke-width="2.5" stroke-linecap="butt"/><path d="M493.94383,8.05v19.10144h-501.55428v-19.10144z" fill="#eaf6f7" stroke="#7ebecd" stroke-width="2.5" stroke-linecap="butt"/><path d="M448.21093,-40.3607l6.37184,67.22852l-51.33333,-18.731l-1.78507,-47.42579z" fill="#e1f9fe" stroke="#7ebecd" stroke-width="2.5" stroke-linecap="round"/><path d="M72.12345,-44.31448l-2.20735,51.78463l-51.33334,18.73101l6.50319,-68.61438z" data-paper-data="{&quot;index&quot;:null}" fill="#e1f9fe" stroke="#7ebecd" stroke-width="2.5" stroke-linecap="round"/><text transform="translate(69.16006,48.26875) scale(0.5,0.5)" font-size="40" xml:space="preserve" fill="#7ebecd" fill-rule="nonzero" stroke="none" stroke-width="1" stroke-linecap="butt" stroke-linejoin="miter" stroke-miterlimit="10" stroke-dasharray="" stroke-dashoffset="0" font-family="Sans Serif" font-weight="normal" text-anchor="start" style="mix-blend-mode: normal"><tspan x="0" dy="0">Put all 10 mustard bottles in the bin</tspan></text><text transform="translate(85.75002,7.75428) scale(0.5,0.5)" font-size="40" xml:space="preserve" fill="#7ebecd" fill-rule="nonzero" stroke="none" stroke-width="1" stroke-linecap="butt" stroke-linejoin="miter" stroke-miterlimit="10" stroke-dasharray="" stroke-dashoffset="0" font-family="Sans Serif" font-weight="normal" text-anchor="start" style="mix-blend-mode: normal"><tspan x="0" dy="0"> </tspan></text></g></g></svg>